<?xml version="1.0" encoding="utf-8"?>
<!-- Generator: Adobe Illustrator 28.0.0, SVG Export Plug-In . SVG Version: 6.00 Build 0)  -->
<svg version="1.1" id="Layer_1" xmlns="http://www.w3.org/2000/svg" xmlns:xlink="http://www.w3.org/1999/xlink" x="0px" y="0px"
	 viewBox="0 0 1000 1000" enable-background="new 0 0 1000 1000" xml:space="preserve">
<g>
	<path d="M318.812,65.562c-46.562,2.188-78.344,9.625-106.125,20.531c-28.75,11.219-53.125,26.25-77.406,50.594
		c-24.25,24.344-39.188,48.75-50.313,77.531c-10.781,27.844-18.062,59.656-20.125,106.25c-2.062,46.562-2.5,61.562-2.281,180.344
		c0.219,118.781,0.75,133.687,3,180.375c2.219,46.531,9.625,78.312,20.531,106.125c11.219,28.75,26.25,53.125,50.594,77.406
		c24.344,24.25,48.719,39.156,77.594,50.312c27.812,10.75,59.656,18.094,106.219,20.125s61.562,2.5,180.344,2.281
		s133.719-0.75,180.406-2.969c46.687-2.219,78.281-9.656,106.094-20.531c28.75-11.25,53.156-26.25,77.406-50.625
		c24.25-24.375,39.188-48.781,50.281-77.594c10.781-27.812,18.094-59.656,20.125-106.188c2.031-46.687,2.531-61.594,2.281-180.406
		c-0.25-118.812-0.75-133.688-2.969-180.344s-9.625-78.344-20.531-106.156c-11.25-28.75-26.25-53.125-50.594-77.406
		C839,110.937,814.562,96.031,785.75,84.937c-27.844-10.781-59.656-18.125-106.219-20.125c-46.562-2-61.562-2.531-180.375-2.313
		s-133.688,0.75-180.344,3 M323.937,856.406c-42.656-1.844-65.812-8.937-81.25-14.875c-20.438-7.875-35-17.406-50.375-32.625
		s-24.844-29.844-32.813-50.25c-6-15.437-13.219-38.562-15.219-81.219c-2.156-46.094-2.625-59.938-2.875-176.75
		s0.188-130.625,2.219-176.75c1.813-42.625,8.938-65.812,14.875-81.25c7.875-20.469,17.375-35,32.625-50.375
		c15.25-15.375,29.844-24.844,50.25-32.813c15.406-6.031,38.562-13.188,81.188-15.219c46.125-2.188,59.969-2.625,176.75-2.875
		c116.781-0.25,130.656,0.188,176.812,2.219c42.625,1.844,65.812,8.906,81.219,14.875c20.438,7.875,35,17.344,50.375,32.625
		s24.844,29.812,32.844,50.281c6.031,15.375,13.188,38.5,15.188,81.156c2.188,46.125,2.688,59.969,2.906,176.75
		s-0.188,130.656-2.219,176.75c-1.875,42.656-8.938,65.812-14.875,81.281c-7.875,20.438-17.375,35-32.656,50.375
		s-29.844,24.844-50.25,32.812c-15.406,6-38.562,13.188-81.156,15.219c-46.125,2.156-59.969,2.625-176.781,2.875
		s-130.625-0.219-176.75-2.219 M680.594,266.156c0.062,29,23.594,52.469,52.594,52.406s52.469-23.594,52.406-52.594
		c-0.062-29-23.594-52.469-52.594-52.406l0,0C704,213.625,680.562,237.156,680.594,266.156 M275.375,500.406
		c0.25,124.062,101,224.438,225.063,224.188s224.469-101,224.25-225.062c-0.25-124.063-101.031-224.469-225.094-224.219
		c-124.062,0.25-224.438,101.031-224.187,225.094 M354.219,500.25c-0.156-80.531,65-145.969,145.562-146.125
		c80.531-0.156,145.969,65,146.125,145.562c0.156,80.531-65,145.969-145.562,146.125c-80.531,0.156-145.969-64.969-146.125-145.5
		l0,0"/>
</g>
</svg>
