<?xml version="1.0" encoding="utf-8"?>
<!-- Generator: Adobe Illustrator 28.0.0, SVG Export Plug-In . SVG Version: 6.00 Build 0)  -->
<svg version="1.1" id="Layer_1" xmlns="http://www.w3.org/2000/svg" xmlns:xlink="http://www.w3.org/1999/xlink" x="0px" y="0px"
	 viewBox="0 0 1000 1000" enable-background="new 0 0 1000 1000" xml:space="preserve">
<g>
	<path d="M999.938,590.312c-2.156,74.938-67.125,132.219-141.656,132.219H517.469c-15.625-0.125-28.219-12.844-28.156-28.469
		V327.344c-0.656-13,6.875-25.062,18.844-30.187c0,0,31.25-21.406,97.219-21.406c40.5-0.156,80.312,10.75,115.094,31.469
		c54.812,32.062,93.656,85.688,107.062,147.75c11.75-3.406,23.938-5.094,36.188-5.031c36.844,0,72.125,14.937,97.781,41.375
		c25.656,26.438,39.531,62.156,38.406,98.969L999.938,590.312z"/>
	<path d="M446.719,350.688C457,475,464.5,588.375,446.719,712.469c0,6.094-4.938,11.031-11.031,11.031
		c-6.094,0-11.031-4.938-11.031-11.031c-16.5-122.906-9.219-238.562,0-361.781c0-6.094,4.938-11.031,11.031-11.031
		C441.781,339.656,446.719,344.594,446.719,350.688z"/>
	<path d="M377.969,393.531c11.875,110.938,15.406,208.031-0.219,319.375c-0.781,5.719-5.688,10-11.469,10
		c-5.781,0-10.656-4.281-11.469-10c-13.812-109.75-10.719-209.438,0-319.375c0-6.375,5.188-11.562,11.562-11.562
		c6.375,0,11.562,5.188,11.562,11.562L377.969,393.531z"/>
	<path d="M308.719,382.812c11.25,113.719,16.281,215.75,0,329.781c0,6.125-4.969,11.094-11.094,11.094s-11.094-4.969-11.094-11.094
		c-15.844-112.219-10.719-217.344,0-329.781c0-6.125,4.969-11.094,11.094-11.094S308.719,376.688,308.719,382.812L308.719,382.812z"
		/>
	<path d="M240.062,414.938c13.531,98.938,13.438,199.281-0.312,298.188c-0.562,5.812-5.469,10.25-11.281,10.25
		c-5.812,0-10.719-4.438-11.281-10.25c-12.75-99-12.75-199.188,0-298.188c0-6.312,5.125-11.469,11.469-11.469
		s11.469,5.125,11.469,11.469l0,0H240.062z"/>
	<path d="M170.469,488.719c17.562,77.844,9.531,146.031-1.188,224.844c0,5.906-4.781,10.719-10.719,10.719
		s-10.719-4.781-10.719-10.719c-8.781-77.531-16.594-148.062,0-224.844c0.562-5.812,5.469-10.25,11.281-10.25
		s10.719,4.438,11.281,10.25H170.469z"/>
	<path d="M101.531,477.344c16.156,79.125,10.812,146.375-0.437,225.812c-1.062,11.656-21.406,11.781-22.5,0
		c-10.156-78.375-14.469-147.75-0.437-225.812c0.781-5.844,5.781-10.188,11.656-10.188s10.875,4.344,11.656,10.188H101.531z"/>
	<path d="M32.031,515.375C48.719,568.281,42.75,611,30.969,664.406c0,5.906-4.781,10.719-10.719,10.719s-10.719-4.781-10.719-10.719
		C-0.531,611.719-5.25,567.938,8.563,515.375c0.594-6.031,5.656-10.656,11.719-10.656S31.438,509.344,32,515.375H32.031z"/>
</g>
</svg>
