<?xml version="1.0" encoding="utf-8"?>
<!-- Generator: Adobe Illustrator 28.0.0, SVG Export Plug-In . SVG Version: 6.00 Build 0)  -->
<svg version="1.1" id="Layer_1" xmlns="http://www.w3.org/2000/svg" xmlns:xlink="http://www.w3.org/1999/xlink" x="0px" y="0px"
	 viewBox="0 0 800 800" enable-background="new 0 0 800 800" xml:space="preserve">
<g id="XMLID_85_">
	<path id="XMLID_86_" d="M399.845,0C179.37,0,0,179.384,0,399.877C0,620.506,179.37,800,399.845,800
		C620.49,800,800,620.506,800,399.877C800,179.384,620.49,0,399.845,0z M196.931,546.807
		c46.358-14.112,93.889-21.267,141.264-21.267c80.462,0,159.895,20.391,229.749,58.99c4.155,2.264,7.932,9.75,9.626,19.069
		c1.694,9.317,1.02,18.898-1.7,23.882c-3.433,6.395-10.4,10.529-17.752,10.529c-3.643,0-6.846-0.818-10.049-2.549
		c-64.126-35.247-136.698-53.881-209.875-53.881c-44.21,0-87.612,6.544-128.963,19.433c-2.014,0.611-4.087,0.923-6.159,0.923
		c-9.054,0.003-16.913-5.765-19.549-14.324C179.966,575.911,187.329,549.946,196.931,546.807z M179.489,399.483
		c51.669-14.046,105.068-21.17,158.71-21.17c96.433,0,192.191,23.334,276.986,67.512c5.944,3.016,10.324,8.131,12.331,14.4
		c2.035,6.35,1.422,13.178-1.755,19.271c-7.567,14.809-16.412,24.761-22.014,24.761c-3.971,0-7.803-0.952-11.62-2.859
		c-78.738-41.002-164.171-61.791-253.93-61.791c-49.928,0-98.911,6.565-145.545,19.502c-2.169,0.588-4.396,0.884-6.612,0.884
		c-11.218,0.003-21.104-7.575-24.031-18.395C158.258,427.525,166.822,402.927,179.489,399.483z M175.022,303.229
		c-2.369,0.585-4.79,0.879-7.197,0.879c-13.558,0.003-25.306-9.159-28.569-22.261c-4.089-16.585,6.287-35.85,21.314-39.635
		c58.442-14.355,118.203-21.634,177.626-21.634c115.032,0,225.199,25.862,327.478,76.884c7.103,3.504,12.399,9.553,14.917,17.031
		c2.518,7.486,1.962,15.544-1.553,22.662c-4.789,9.587-15.14,19.908-26.547,19.908c-4.399,0-8.915-1.031-12.915-2.909
		c-93.951-47.006-195.35-70.841-301.377-70.841C283.709,283.315,228.81,290.014,175.022,303.229z"/>
</g>
</svg>
