<?xml version="1.0" encoding="utf-8"?>
<!-- Generator: Adobe Illustrator 28.0.0, SVG Export Plug-In . SVG Version: 6.00 Build 0)  -->
<svg version="1.1" id="Layer_1" xmlns="http://www.w3.org/2000/svg" xmlns:xlink="http://www.w3.org/1999/xlink" x="0px" y="0px"
	 viewBox="0 0 1000 1000" enable-background="new 0 0 1000 1000" xml:space="preserve">
<g>
	<path d="M767.562,237.906c-47.125-30.719-81.156-79.906-91.75-137.219c-2.281-12.375-3.562-25.125-3.562-38.156H521.812
		l-0.25,602.875c-2.531,67.5-58.094,121.688-126.219,121.688c-21.156,0-41.094-5.281-58.656-14.531
		c-40.25-21.188-67.781-63.375-67.781-111.938c0-69.719,56.719-126.469,126.437-126.469c13.031,0,25.5,2.156,37.312,5.844V386.437
		c-12.219-1.656-24.625-2.719-37.312-2.719c-152.688,0-276.875,124.219-276.875,276.875c0,93.688,46.812,176.562,118.219,226.688
		c44.969,31.562,99.688,50.188,158.687,50.188c152.688,0,276.875-124.219,276.875-276.875V354.906
		c59,42.344,131.281,67.313,209.281,67.313V271.781c-42.031,0-81.156-12.5-113.969-33.906V237.906z"/>
</g>
</svg>
