<?xml version="1.0" encoding="utf-8"?>
<!-- Generator: Adobe Illustrator 28.0.0, SVG Export Plug-In . SVG Version: 6.00 Build 0)  -->
<svg version="1.1" id="Layer_1" xmlns="http://www.w3.org/2000/svg" xmlns:xlink="http://www.w3.org/1999/xlink" x="0px" y="0px"
	 viewBox="0 0 1000 1000" enable-background="new 0 0 1000 1000" xml:space="preserve">
<g>
	<path d="M979.094,257.75c-11.5-43.312-45.375-77.406-88.406-89C812.687,147.719,500,147.719,500,147.719s-312.719,0-390.688,21.031
		c-43.031,11.562-76.906,45.688-88.406,89C0,336.25,0,500,0,500s0,163.781,20.906,242.25c11.5,43.312,45.375,77.406,88.406,88.969
		C187.312,852.25,500,852.25,500,852.25s312.719,0,390.687-21.031c43.031-11.563,76.906-45.688,88.406-88.969
		C1000,663.75,1000,500,1000,500S1000,336.25,979.094,257.75L979.094,257.75z M397.719,648.688V351.312L659.094,500L397.719,648.688
		L397.719,648.688z"/>
</g>
</svg>
